<svg data-v-0dd9719b="" version="1.0" xmlns="http://www.w3.org/2000/svg" xmlns:xlink="http://www.w3.org/1999/xlink" width="100%" height="100%" viewBox="0 0 340.000000 250.000000" preserveAspectRatio="xMidYMid meet" color-interpolation-filters="sRGB" style="margin: auto;"> <rect data-v-0dd9719b="" x="0" y="0" width="100%" height="100%" fill="#feffff" fill-opacity="0" class="background"></rect> <rect data-v-0dd9719b="" x="0" y="0" width="100%" height="100%" fill="url(#watermark)" fill-opacity="1" class="watermarklayer"></rect> <g data-v-0dd9719b="" fill="#333" class="iconlinesvg-g iconlinesvg" transform="translate(77.79317617416382,113.24503898620605)"><g class="tp-name" transform="matrix(1,0,0,1,0,0)" opacity="1"><g transform="translate(0, 1.5668101783009458)"><g data-gra="path-name" fill="#333" transform="scale(1)"><path d="M6.89-4.39L6.89-7.87L14.36-7.87L14.36-11.98L6.89-11.98L6.89-15.20L16.43-15.20L16.43-19.59L2.18-19.59L2.18 0L16.60 0L16.60-4.39Z" transform="translate(-2.183175244907479, 19.984450318768463)"></path></g></g><g transform="translate(18, 1.5668101783009458)"><g data-gra="path-name" fill="#333" transform="scale(1)"><path d="M17.33-19.59L13.66-13.66C12.23-11.34 12.01-10.83 11.98-10.83L11.95-10.83C11.92-10.83 11.70-11.34 10.27-13.66L6.61-19.59L2.18-19.59L2.18 0L6.80 0L6.80-4.79C6.80-9.43 6.63-11.73 6.66-11.73L6.69-11.73C6.72-11.73 8.28-9.04 8.45-8.76L10.75-4.84L13.18-4.84L15.48-8.76C15.65-9.04 17.21-11.73 17.24-11.73L17.27-11.73C17.30-11.73 17.13-9.43 17.13-4.79L17.13 0L21.75 0L21.75-19.59Z" transform="translate(-2.183175244907479, 19.984450318768463)"></path></g></g><g transform="translate(41, 0)"><g><g class="imagesvg"><g><rect fill="#333" fill-opacity="0" stroke-width="2" x="0" y="0" width="24.974590823026865" height="23.50992264240503" class="image-rect"></rect> <svg filter="url(#colors2358309013)" x="0" y="0" width="24.974590823026865" height="23.50992264240503" filtersec="colorsf4873937452" class="image-svg-svg primary" style="overflow: visible;"><svg xmlns="http://www.w3.org/2000/svg" viewBox="0.0020000000949949026 0.003000000026077032 99.31999969482422 93.49500274658203"><path fill="#333333" d="M49.662.003L.002 93.498h99.32L49.661.003zm38.778 86.96H55.1l16.67-31.388 16.67 31.388zM68.064 48.6L49.662 83.258l-18.41-34.659 18.41-34.658 18.402 34.658zm-40.51 6.976l16.67 31.388H10.878l16.677-31.388z"></path></svg></svg> <defs><filter id="colors2358309013"><feColorMatrix type="matrix" values="0 0 0 0 0.19921875  0 0 0 0 0.19921875  0 0 0 0 0.19921875  0 0 0 1 0" class="icon-fecolormatrix"></feColorMatrix></filter> <filter id="colorsf4873937452"><feColorMatrix type="matrix" values="0 0 0 0 0.99609375  0 0 0 0 0.99609375  0 0 0 0 0.99609375  0 0 0 1 0" class="icon-fecolormatrix"></feColorMatrix></filter> <filter id="colorsb1556207422"><feColorMatrix type="matrix" values="0 0 0 0 0  0 0 0 0 0  0 0 0 0 0  0 0 0 1 0" class="icon-fecolormatrix"></feColorMatrix></filter></defs></g></g></g></g><g transform="translate(69, 1.5668101783009458)"><g data-gra="path-name" fill="#333" transform="scale(1)"><path d="M6.89 0L6.89-19.59L2.18-19.59L2.18 0Z" transform="translate(-2.183175244907479, 19.984450318768463)"></path></g></g><g transform="translate(77, 1.5668101783009458)"><g data-gra="path-name" fill="#333" transform="scale(1)"><path d="M6.89-4.39L6.89-19.59L2.18-19.59L2.18 0L16.15 0L16.15-4.39Z" transform="translate(-2.183175244907479, 19.984450318768463)"></path></g></g><g transform="translate(94, 1.5668101783009458)"><g data-gra="path-name" fill="#333" transform="scale(1)"><path d="M2.18-19.59L2.18 0L6.89 0L6.89-6.16L9.66-6.16C14.47-6.16 17.38-8.68 17.38-12.88C17.38-17.07 14.47-19.59 9.66-19.59ZM6.89-10.55L6.89-15.20L9.57-15.20C11.39-15.20 12.48-14.33 12.48-12.88C12.48-11.42 11.39-10.55 9.57-10.55Z" transform="translate(-2.183175244907479, 19.984450318768463)"></path></g></g><g transform="translate(113, 1.5668101783009458)"><g data-gra="path-name" fill="#333" transform="scale(1)"><path d="M14.41-19.59L14.41-8.82C14.41-5.46 13.04-4.00 10.47-4.00C7.89-4.00 6.52-5.46 6.52-8.82L6.52-19.59L1.82-19.59L1.82-8.70C1.82-2.83 5.26 0.39 10.47 0.39C15.65 0.39 19.12-2.83 19.12-8.70L19.12-19.59Z" transform="translate(-1.8193127040895658, 19.984450318768463)"></path></g></g><g transform="translate(134, 1.5668101783009458)"><g data-gra="path-name" fill="#333" transform="scale(1)"><path d="M6.89-4.39L6.89-19.59L2.18-19.59L2.18 0L16.15 0L16.15-4.39Z" transform="translate(-2.183175244907479, 19.984450318768463)"></path></g></g><g transform="translate(151, 1.5668101783009458)"><g data-gra="path-name" fill="#333" transform="scale(1)"><path d="M16.32-14.61C15.39-17.69 12.43-19.98 8.68-19.98C4.42-19.98 1.34-17.21 1.34-14.16C1.34-10.72 4.06-9.43 6.41-8.54C9.21-7.47 11.50-7.08 11.50-5.51C11.50-4.56 10.72-3.78 9.04-3.78C6.97-3.78 5.57-5.26 5.07-6.75L0.56-5.54C1.85-1.88 4.76 0.39 8.84 0.39C13.41 0.39 16.49-2.16 16.49-5.74C16.49-9.10 13.43-10.75 10.52-11.81C8.14-12.68 6.19-13.16 6.19-14.44C6.19-15.23 7.00-15.93 8.40-15.93C9.80-15.93 11.31-15.11 11.78-13.38Z" transform="translate(-0.5597885243352511, 19.984450318768463)"></path></g></g><g transform="translate(170, 1.5668101783009458)"><g data-gra="path-name" fill="#333" transform="scale(1)"><path d="M6.89-4.39L6.89-7.87L14.36-7.87L14.36-11.98L6.89-11.98L6.89-15.20L16.43-15.20L16.43-19.59L2.18-19.59L2.18 0L16.60 0L16.60-4.39Z" transform="translate(-2.183175244907479, 19.984450318768463)"></path></g></g></g> <!----></g><defs v-gra="od"></defs></svg>